<svg width="488" height="264" viewBox="0 0 488 264" fill="none" xmlns="http://www.w3.org/2000/svg">
<rect width="488" height="264" fill="white"/>
<path d="M116.169 75.8857L121.137 94H123.57L127.503 80.2072H127.555L131.178 94H133.662L138.838 75.8857H136.198L132.394 89.549H132.342L128.72 75.8857H126.391L122.587 89.549H122.535L118.912 75.8857H116.169Z" fill="black"/>
<path d="M143.199 136.088H129.899L134.829 120.754C135.288 118.852 133.912 117.069 132.192 117.069H115.682C114.306 117.069 113.045 118.139 112.93 119.565L109.261 148.094C109.032 149.877 110.293 151.304 112.013 151.304H125.542L120.268 174.483C119.924 176.266 121.185 177.93 122.905 177.93C123.937 177.93 124.854 177.455 125.313 176.504L145.492 140.368C146.639 138.585 145.263 136.088 143.199 136.088Z" fill="#F2B135"/>
<path d="M357.613 75.6083V93.7226H360.097V85.9852H366.799V83.7598H360.097V77.8338H366.799V75.6083H357.613Z" fill="black"/>
<path d="M377.708 135.595H364.408L369.338 120.261C369.797 118.359 368.421 116.576 366.701 116.576H350.191C348.815 116.576 347.554 117.646 347.439 119.072L343.77 147.601C343.541 149.384 344.802 150.81 346.522 150.81H360.051L354.777 173.99C354.433 175.773 355.694 177.437 357.414 177.437C358.446 177.437 359.363 176.961 359.822 176.011L380.001 139.874C381.148 138.091 379.772 135.595 377.708 135.595Z" fill="#E5E5E5"/>
<path d="M229.408 78.1112V94H231.892V78.1112H236.446V75.8857H224.853V78.1112H229.408ZM239.145 74.5918V94H241.5V85.4087C242.431 83.9595 243.855 82.9244 245.355 82.9244C246.494 82.9244 247.193 83.3384 247.607 83.9595C248.228 84.8911 248.28 86.2626 248.28 87.5306V94H250.634V87.2718C250.634 85.3051 250.35 83.5713 249.47 82.381C248.72 81.3718 247.529 80.7507 245.718 80.7507C243.984 80.7507 242.457 81.6564 241.5 83.1832V74.5918H239.145Z" fill="black"/>
<path d="M254.793 131.128H241.493L246.423 115.794C246.882 113.892 245.506 112.109 243.786 112.109H227.276C225.9 112.109 224.639 113.179 224.524 114.605L220.855 143.134C220.626 144.917 221.887 146.343 223.607 146.343H237.136L231.862 169.523C231.518 171.306 232.779 172.97 234.499 172.97C235.531 172.97 236.448 172.495 236.907 171.544L257.086 135.407C258.233 133.624 256.857 131.128 254.793 131.128Z" fill="#F7D79A"/>
<rect x="280.269" y="148.754" width="8.94569" height="8.94569" transform="rotate(29.8449 280.269 148.754)" fill="#EEA71F"/>
<rect x="192.935" y="85.1289" width="8.94569" height="8.94569" transform="rotate(29.8449 192.935 85.1289)" fill="#EEA71F"/>
<path d="M280.982 174.524C278.665 184.952 272.558 194.148 263.845 200.328C255.132 206.509 244.435 209.233 233.827 207.974C223.219 206.715 213.457 201.561 206.433 193.513C199.409 185.464 194.78 174.524 194.78 164.147V145.162" stroke="#EEA71F" stroke-width="4.10488" stroke-linecap="round" stroke-linejoin="round"/>
<path d="M195.807 73.7252C198.124 63.2974 204.232 54.1017 212.944 47.9213C221.657 41.7408 232.355 39.0161 242.962 40.2753C253.57 41.5346 263.332 46.6882 270.356 54.7367C277.38 62.7852 282.009 73.7252 282.009 84.1022L282.009 98.9824" stroke="#EEA71F" stroke-width="4.10488" stroke-linecap="round" stroke-linejoin="round"/>
</svg>
