<svg width="490" height="330" viewBox="0 0 490 330" fill="none" xmlns="http://www.w3.org/2000/svg">
<rect width="488.4" height="330" transform="translate(0.799805)" fill="white"/>
<line x1="353.992" y1="80.9055" x2="371.813" y2="84.4374" stroke="black" stroke-width="2.59551"/>
<line x1="355" y1="75.8137" x2="372.822" y2="79.3456" stroke="black" stroke-width="2.59551"/>
<line x1="356.01" y1="70.7211" x2="373.832" y2="74.253" stroke="black" stroke-width="2.59551"/>
<path d="M281.847 104.169L254.245 113.102L272.414 113.103L283.661 107.047L281.847 104.169Z" fill="black"/>
<path d="M156.48 88.4316H166.862L192.818 112.656H156.48V88.4316Z" fill="#D9D9D9"/>
<path d="M349.461 97.2896L347.138 100.208L336.351 97.9592L334.825 94.4508L336.313 88.6167L350.906 91.6588L349.461 97.2896Z" fill="#999999"/>
<path d="M134.419 80.6465L156.481 92.3263L154.318 134.72L114.953 113.523V105.304L127.065 83.242L134.419 80.6465Z" fill="#D9D9D9"/>
<line x1="178.095" y1="90.94" x2="189.342" y2="80.5579" stroke="black" stroke-width="2.59551"/>
<circle cx="188.925" cy="81.0789" r="2.59551" fill="black" stroke="black" stroke-width="0.865169"/>
<rect x="151.29" y="112.657" width="121.124" height="26.8202" fill="#D9D9D9"/>
<path fill-rule="evenodd" clip-rule="evenodd" d="M281.652 154.604L282.081 152.163C283.014 152.092 283.961 152.081 284.92 152.134C285.879 152.187 286.82 152.303 287.739 152.476L287.895 154.95C288.071 154.989 288.246 155.031 288.421 155.075C288.631 155.129 288.841 155.185 289.049 155.246L290.38 153.153C292.205 153.748 293.918 154.579 295.485 155.609L294.683 157.956C294.839 158.066 294.993 158.178 295.145 158.293C295.31 158.416 295.473 158.543 295.633 158.672L297.663 157.249C299.103 158.483 300.374 159.904 301.442 161.471L299.803 163.331C300.015 163.666 300.217 164.007 300.409 164.355L302.83 163.817C303.681 165.488 304.318 167.283 304.707 169.163L302.48 170.255C302.547 170.644 302.603 171.037 302.646 171.434L305.087 171.863C305.158 172.795 305.169 173.743 305.116 174.702C305.062 175.661 304.947 176.601 304.773 177.52L302.299 177.677C302.213 178.066 302.114 178.451 302.004 178.83L304.096 180.162C303.502 181.987 302.671 183.7 301.64 185.267L299.293 184.464C299.164 184.648 299.031 184.829 298.895 185.008C298.791 185.145 298.685 185.281 298.578 185.415L300.001 187.445C298.766 188.884 297.345 190.156 295.778 191.223L293.918 189.584C293.584 189.797 293.242 189.999 292.894 190.191L293.432 192.612C291.761 193.463 289.967 194.099 288.087 194.488L286.995 192.261C286.606 192.329 286.212 192.384 285.816 192.427L285.387 194.869C284.454 194.94 283.507 194.95 282.548 194.897C281.589 194.844 280.648 194.728 279.729 194.555L279.573 192.081C279.184 191.994 278.799 191.896 278.419 191.785L277.088 193.878C275.263 193.284 273.55 192.452 271.983 191.422L272.785 189.075C272.657 188.984 272.529 188.892 272.403 188.798C272.211 188.655 272.021 188.509 271.835 188.359L269.805 189.782C268.365 188.548 267.094 187.127 266.026 185.56L267.665 183.7C267.554 183.524 267.445 183.347 267.339 183.168C267.243 183.005 267.15 182.841 267.059 182.676L264.638 183.214C263.787 181.543 263.15 179.748 262.761 177.869L264.988 176.777C264.962 176.627 264.938 176.477 264.916 176.326C264.88 176.085 264.849 175.842 264.822 175.597L262.381 175.168C262.31 174.236 262.299 173.288 262.352 172.329C262.406 171.37 262.521 170.43 262.695 169.511L265.169 169.355C265.255 168.965 265.354 168.58 265.464 168.201L263.372 166.869C263.966 165.044 264.797 163.331 265.828 161.764L268.175 162.567C268.403 162.242 268.642 161.925 268.89 161.616L267.467 159.586C268.702 158.147 270.123 156.876 271.69 155.808L273.55 157.447C273.774 157.304 274.002 157.166 274.233 157.033C274.346 156.967 274.459 156.903 274.574 156.841L274.036 154.419C275.707 153.569 277.501 152.932 279.381 152.543L280.473 154.77C280.862 154.703 281.256 154.647 281.652 154.604ZM282.902 188.518C274.616 188.058 268.272 180.969 268.732 172.683C269.191 164.398 276.281 158.054 284.566 158.513C292.852 158.973 299.196 166.062 298.736 174.348C298.277 182.634 291.187 188.978 282.902 188.518Z" fill="black"/>
<circle cx="283.66" cy="173.22" r="15.573" fill="#525252"/>
<circle cx="283.661" cy="173.219" r="6.92135" fill="black"/>
<rect width="33.04" height="10.7633" transform="matrix(-0.524246 0.851567 0.851567 0.524246 297.737 108.331)" fill="#D9D9D9"/>
<rect width="33.04" height="10.7633" transform="matrix(-1 -8.74228e-08 -8.74228e-08 1 337.464 99.6797)" fill="#D9D9D9"/>
<path d="M193.25 101.411L169.489 74.3332L166.739 83.2574L170.089 91.7124L181.557 101.997L193.25 101.411Z" fill="#999999"/>
<path fill-rule="evenodd" clip-rule="evenodd" d="M222.821 154.604L223.25 152.163C224.182 152.092 225.13 152.081 226.089 152.134C227.048 152.187 227.988 152.303 228.907 152.476L229.063 154.95C229.24 154.989 229.415 155.031 229.589 155.075C229.8 155.129 230.009 155.185 230.217 155.246L231.549 153.153C233.374 153.748 235.087 154.579 236.654 155.609L235.851 157.956C236.007 158.066 236.161 158.178 236.313 158.293C236.478 158.416 236.641 158.543 236.802 158.672L238.832 157.249C240.271 158.483 241.542 159.904 242.61 161.471L240.971 163.331C241.184 163.666 241.386 164.007 241.578 164.355L243.999 163.817C244.849 165.488 245.486 167.283 245.875 169.163L243.648 170.255C243.715 170.644 243.771 171.037 243.814 171.434L246.255 171.863C246.326 172.795 246.337 173.743 246.284 174.702C246.231 175.661 246.115 176.601 245.942 177.52L243.468 177.677C243.381 178.066 243.282 178.451 243.172 178.83L245.265 180.162C244.67 181.987 243.839 183.7 242.809 185.267L240.462 184.464C240.332 184.648 240.2 184.829 240.064 185.008C239.96 185.145 239.854 185.281 239.746 185.415L241.169 187.445C239.935 188.884 238.514 190.156 236.947 191.223L235.087 189.584C234.752 189.797 234.411 189.999 234.063 190.191L234.601 192.612C232.93 193.463 231.135 194.099 229.255 194.488L228.163 192.261C227.774 192.329 227.381 192.384 226.984 192.427L226.555 194.869C225.623 194.94 224.675 194.95 223.716 194.897C222.757 194.844 221.817 194.728 220.898 194.555L220.741 192.081C220.352 191.994 219.967 191.896 219.588 191.785L218.256 193.878C216.431 193.284 214.718 192.452 213.151 191.422L213.954 189.075C213.825 188.984 213.698 188.892 213.571 188.798C213.379 188.655 213.19 188.509 213.003 188.359L210.973 189.782C209.534 188.548 208.263 187.127 207.195 185.56L208.834 183.7C208.722 183.524 208.613 183.347 208.508 183.168C208.412 183.005 208.318 182.841 208.227 182.676L205.806 183.214C204.955 181.543 204.319 179.748 203.93 177.869L206.157 176.777C206.131 176.627 206.107 176.477 206.084 176.326C206.049 176.085 206.017 175.842 205.991 175.597L203.549 175.168C203.478 174.236 203.468 173.288 203.521 172.329C203.574 171.37 203.69 170.43 203.863 169.511L206.337 169.355C206.424 168.965 206.523 168.58 206.633 168.201L204.54 166.869C205.134 165.044 205.966 163.331 206.996 161.764L209.343 162.567C209.572 162.242 209.811 161.925 210.059 161.616L208.636 159.586C209.87 158.147 211.291 156.876 212.858 155.808L214.718 157.447C214.943 157.304 215.171 157.166 215.401 157.033C215.514 156.967 215.628 156.903 215.742 156.841L215.204 154.419C216.875 153.569 218.67 152.932 220.549 152.543L221.641 154.77C222.031 154.703 222.424 154.647 222.821 154.604ZM224.07 188.518C215.785 188.058 209.441 180.969 209.9 172.683C210.36 164.398 217.449 158.054 225.735 158.513C234.02 158.973 240.364 166.062 239.905 174.348C239.445 182.634 232.356 188.978 224.07 188.518Z" fill="black"/>
<circle cx="224.829" cy="173.22" r="15.573" fill="#525252"/>
<circle cx="224.829" cy="173.219" r="6.92135" fill="black"/>
<path fill-rule="evenodd" clip-rule="evenodd" d="M142.36 154.604L142.789 152.163C143.722 152.092 144.669 152.081 145.628 152.134C146.587 152.187 147.528 152.303 148.447 152.476L148.603 154.95C148.779 154.989 148.954 155.031 149.129 155.075C149.339 155.129 149.549 155.185 149.757 155.246L151.088 153.153C152.913 153.748 154.626 154.579 156.193 155.609L155.391 157.956C155.547 158.066 155.701 158.178 155.853 158.293C156.018 158.416 156.181 158.543 156.341 158.672L158.371 157.249C159.811 158.483 161.082 159.904 162.15 161.471L160.511 163.331C160.723 163.666 160.925 164.007 161.117 164.355L163.538 163.817C164.389 165.488 165.026 167.283 165.415 169.163L163.188 170.255C163.255 170.644 163.311 171.037 163.354 171.434L165.795 171.863C165.866 172.795 165.877 173.743 165.824 174.702C165.77 175.661 165.655 176.601 165.481 177.52L163.007 177.677C162.921 178.066 162.822 178.451 162.712 178.83L164.804 180.162C164.21 181.987 163.379 183.7 162.348 185.267L160.001 184.464C159.872 184.648 159.739 184.829 159.603 185.008C159.499 185.145 159.393 185.281 159.286 185.415L160.709 187.445C159.474 188.884 158.053 190.156 156.486 191.223L154.626 189.584C154.292 189.797 153.95 189.999 153.602 190.191L154.14 192.612C152.469 193.463 150.675 194.099 148.795 194.488L147.703 192.261C147.314 192.329 146.92 192.384 146.524 192.427L146.095 194.869C145.162 194.94 144.215 194.95 143.256 194.897C142.297 194.844 141.356 194.728 140.438 194.555L140.281 192.081C139.892 191.994 139.507 191.896 139.127 191.785L137.796 193.878C135.971 193.284 134.258 192.452 132.691 191.422L133.493 189.075C133.365 188.984 133.237 188.892 133.111 188.798C132.919 188.655 132.729 188.509 132.543 188.359L130.513 189.782C129.073 188.548 127.802 187.127 126.734 185.56L128.373 183.7C128.262 183.524 128.153 183.347 128.047 183.168C127.951 183.005 127.858 182.841 127.767 182.676L125.346 183.214C124.495 181.543 123.858 179.748 123.469 177.869L125.696 176.777C125.67 176.627 125.646 176.477 125.624 176.326C125.588 176.085 125.557 175.842 125.53 175.597L123.089 175.168C123.018 174.236 123.007 173.288 123.06 172.329C123.114 171.37 123.229 170.43 123.403 169.511L125.877 169.355C125.963 168.965 126.062 168.58 126.172 168.201L124.08 166.869C124.674 165.044 125.505 163.331 126.536 161.764L128.883 162.567C129.112 162.242 129.35 161.925 129.598 161.616L128.175 159.586C129.41 158.147 130.831 156.876 132.398 155.808L134.258 157.447C134.482 157.304 134.71 157.166 134.941 157.033C135.054 156.967 135.167 156.903 135.282 156.841L134.744 154.419C136.415 153.569 138.209 152.932 140.089 152.543L141.181 154.77C141.57 154.703 141.964 154.647 142.36 154.604ZM143.61 188.518C135.324 188.058 128.98 180.969 129.44 172.683C129.899 164.398 136.989 158.054 145.274 158.513C153.56 158.973 159.904 166.062 159.444 174.348C158.985 182.634 151.895 188.978 143.61 188.518Z" fill="black"/>
<circle cx="144.368" cy="173.22" r="15.573" fill="#525252"/>
<circle cx="144.369" cy="173.219" r="6.92135" fill="black"/>
<line x1="311.778" y1="261.033" x2="241.7" y2="261.033" stroke="#CCCCCC" stroke-width="2.59551" stroke-linecap="round"/>
<line x1="311.778" y1="267.09" x2="311.778" y2="254.978" stroke="#CCCCCC" stroke-width="2.59551" stroke-linecap="round"/>
<line x1="241.7" y1="267.09" x2="241.7" y2="254.978" stroke="#CCCCCC" stroke-width="2.59551" stroke-linecap="round"/>
<path d="M205.999 263.8C207.383 263.8 208.665 263.137 208.665 261.488C208.665 260.206 207.472 259.661 206.514 259.293C205.807 259.013 205.1 258.733 205.1 258.173C205.1 257.599 205.527 257.201 206.205 257.201C206.706 257.201 207.324 257.452 207.663 257.746L208.459 256.892C207.869 256.362 207.03 256.082 206.19 256.082C204.968 256.082 203.819 256.789 203.819 258.277C203.819 259.602 204.953 260.029 205.925 260.412C206.662 260.707 207.339 260.972 207.339 261.546C207.339 262.312 206.735 262.681 206.014 262.681C205.424 262.681 204.894 262.415 204.408 261.9L203.465 262.651C204.04 263.402 204.997 263.8 205.999 263.8ZM210.715 252.576V263.623H212.055V252.576H210.715ZM217.664 263.8C219.814 263.8 221.42 262.091 221.42 259.941C221.42 257.791 219.814 256.082 217.664 256.082C215.513 256.082 213.908 257.791 213.908 259.941C213.908 262.091 215.513 263.8 217.664 263.8ZM217.664 262.563C216.279 262.563 215.278 261.37 215.278 259.941C215.278 258.512 216.279 257.319 217.664 257.319C219.048 257.319 220.05 258.512 220.05 259.941C220.05 261.37 219.048 262.563 217.664 262.563ZM222.27 256.259L224.303 263.623H225.805L227.425 257.894H227.455L229.031 263.623H230.474L232.595 256.259H231.24L229.738 261.929H229.694L228.206 256.259H226.763L225.128 261.929H225.098L223.714 256.259H222.27Z" fill="#666666"/>
<path d="M325.105 257.437V263.623H326.445V257.437H328.434V256.259H326.445V255.331C326.445 254.668 326.489 254.152 326.828 253.873C327.02 253.725 327.285 253.637 327.683 253.637C328.036 253.637 328.316 253.711 328.596 253.843L328.979 252.724C328.552 252.547 328.007 252.4 327.52 252.4C326.534 252.4 325.93 252.724 325.562 253.269C325.237 253.755 325.105 254.432 325.105 255.198V256.259H324.265V257.437H325.105ZM331.953 263.8C332.895 263.8 333.558 263.52 334.162 262.843V263.623H335.444V259.146C335.444 257.246 334.663 256.082 332.527 256.082C331.511 256.082 330.391 256.406 329.625 256.774L330.023 257.894C330.612 257.57 331.511 257.246 332.365 257.246C333.573 257.246 334.103 257.894 334.103 259.013V259.278C333.47 259.146 332.998 259.116 332.63 259.116C331.01 259.116 329.346 259.691 329.346 261.561C329.346 263.137 330.598 263.8 331.953 263.8ZM332.115 262.681C331.334 262.681 330.657 262.357 330.657 261.458C330.657 260.353 331.864 260.132 332.778 260.132C333.146 260.132 333.558 260.162 334.103 260.28V261.797C333.514 262.298 332.866 262.681 332.115 262.681ZM339.758 263.8C341.142 263.8 342.424 263.137 342.424 261.488C342.424 260.206 341.231 259.661 340.273 259.293C339.566 259.013 338.859 258.733 338.859 258.173C338.859 257.599 339.286 257.201 339.964 257.201C340.465 257.201 341.083 257.452 341.422 257.746L342.217 256.892C341.628 256.362 340.789 256.082 339.949 256.082C338.727 256.082 337.578 256.789 337.578 258.277C337.578 259.602 338.712 260.029 339.684 260.412C340.42 260.707 341.098 260.972 341.098 261.546C341.098 262.312 340.494 262.681 339.772 262.681C339.183 262.681 338.653 262.415 338.167 261.9L337.224 262.651C337.799 263.402 338.756 263.8 339.758 263.8ZM346.757 263.771C347.243 263.771 347.758 263.638 348.126 263.447L347.758 262.371C347.522 262.489 347.228 262.578 346.933 262.578C346.197 262.578 345.946 262.121 345.902 261.34C345.888 261.119 345.888 260.957 345.888 260.766V257.437H347.95V256.259H345.888V254.491H344.547V256.259H343.56V257.437H344.547V261.09C344.547 261.664 344.606 262.209 344.783 262.622C345.092 263.314 345.726 263.771 346.757 263.771Z" fill="#666666"/>
<rect x="145.11" y="239.713" width="41.5281" height="41.5281" rx="5.19101" fill="black"/>
<g clip-path="url(#clip0_1832_88357)">
<path d="M161.548 253.758L172.746 260.477L161.548 267.196V253.758Z" fill="white"/>
</g>
<path d="M102.408 194.416V209.989H387.048V194.416H385.318L379.262 197.877L372.34 193.118H364.121L357.2 194.416V192.686H348.548L343.79 193.118L340.329 192.686L330.812 194.416L327.352 193.118L317.835 197.877L313.076 194.416H288.852L282.363 197.877L274.576 192.686L264.194 193.118L261.166 194.416L258.571 192.686H246.891V194.416L242.565 193.118L233.481 194.416L230.885 192.686L218.34 197.877L215.745 194.416H190.222L184.599 197.877L177.677 193.118H163.835L162.537 194.416L160.807 192.686H153.02L149.559 194.416L145.234 192.686L135.717 194.416L132.689 192.686L121.874 197.877L118.413 194.416H102.408Z" fill="#F2A157"/>
<circle cx="339.896" cy="104.871" r="7.78652" fill="#525252"/>
<circle cx="303.559" cy="106.601" r="7.78652" fill="#525252"/>
<rect x="238.592" y="123.25" width="45.8539" height="5.33632" transform="rotate(21.4607 238.592 123.25)" fill="black"/>
<rect x="207.337" y="139.29" width="18.057" height="5.33632" transform="rotate(57.4336 207.337 139.29)" fill="black"/>
<rect x="146.964" y="144.668" width="11.2472" height="5.19101" transform="rotate(90 146.964 144.668)" fill="black"/>
<rect x="239.537" y="106.601" width="18.1685" height="6.92135" transform="rotate(90 239.537 106.601)" fill="black"/>
<rect x="287.121" y="128.23" width="28.5506" height="6.92135" transform="rotate(90 287.121 128.23)" fill="black"/>
<rect x="286.256" y="119.578" width="7.78652" height="12.1124" transform="rotate(90 286.256 119.578)" fill="black"/>
<rect x="262.896" y="68.5342" width="42.3933" height="6.92135" transform="rotate(90 262.896 68.5342)" fill="black"/>
<rect x="262.896" y="106.601" width="6.05618" height="25.0899" transform="rotate(90 262.896 106.601)" fill="black"/>
<rect x="275.009" y="71.1288" width="9.51686" height="31.1461" transform="rotate(90 275.009 71.1288)" fill="black"/>
<rect x="265.492" y="85.837" width="5.19101" height="12.1124" transform="rotate(90 265.492 85.837)" fill="black"/>
<rect x="144.368" y="136.882" width="56.236" height="5.19101" fill="black"/>
<rect x="272.413" y="123.904" width="15.573" height="5.19101" fill="black"/>
<path d="M186.761 112.225H151.722V131.258" stroke="black" stroke-width="2.59551"/>
<path d="M155.183 112.225V93.1914" stroke="black" stroke-width="2.59551"/>
<rect width="30.1513" height="5.33632" transform="matrix(-0.930669 0.365863 0.365863 0.930669 232.126 124.77)" fill="black"/>
<circle cx="236.509" cy="126.932" r="6.48876" fill="#525252"/>
<circle cx="202.767" cy="139.91" r="6.48876" fill="#525252"/>
<line x1="126.821" y1="83.8333" x2="155.372" y2="99.4063" stroke="black" stroke-width="2.59551"/>
<line x1="178.968" y1="98.7066" x2="193.676" y2="111.684" stroke="#4C4C4C" stroke-width="2.59551"/>
<line x1="115.568" y1="104.594" x2="149.309" y2="122.762" stroke="black" stroke-width="2.59551"/>
<rect x="159.941" y="118.714" width="13.8427" height="13.8427" stroke="black" stroke-width="2.59551"/>
<rect x="140.908" y="125.635" width="7.78652" height="8.65169" fill="black"/>
<path d="M140.042 143.37L143.071 129.527H146.531L149.559 143.37V148.129H140.042V143.37Z" fill="black"/>
<rect x="255.11" y="247.623" width="8.65169" height="26.8202" rx="4.32584" fill="#333333"/>
<path d="M239.537 54.691L244.728 49.5H274.143L279.334 54.2584V68.5337H239.537V54.691Z" fill="#D9D9D9"/>
<line x1="237.806" y1="65.506" x2="281.065" y2="65.506" stroke="black" stroke-width="2.59551"/>
<circle cx="249.486" cy="56.8543" r="4.75843" fill="black"/>
<circle cx="249.486" cy="56.8533" r="3.02809" fill="#E69B2A"/>
<rect x="326.396" y="58.1512" width="43.8098" height="25.4337" transform="rotate(10.5758 326.396 58.1512)" fill="#525252"/>
<circle cx="336.003" cy="69.8316" r="7.35393" fill="black"/>
<circle cx="328.649" cy="78.0496" r="2.59551" fill="#D9D9D9"/>
<rect x="348.181" y="65.0732" width="17.2937" height="18.1172" transform="rotate(9.83003 348.181 65.0732)" fill="#D9D9D9"/>
<circle cx="355.043" cy="75.899" r="3.02809" transform="rotate(-1.92489 355.043 75.899)" stroke="#999999" stroke-width="1.73034"/>
<circle cx="283.661" cy="142.938" r="7.78652" fill="black"/>
<rect x="332.831" y="84.9726" width="23.3596" height="3.70726" transform="rotate(11.2136 332.831 84.9726)" fill="#D9D9D9"/>
<defs>
<clipPath id="clip0_1832_88357">
<rect width="13.8427" height="13.8427" fill="white" transform="translate(158.953 253.556)"/>
</clipPath>
</defs>
</svg>
